<svg xmlns="http://www.w3.org/2000/svg" viewBox="0 0 360 96" fill="none">
  <defs>
    <linearGradient id="tra-bg" x1="12" y1="10" x2="108" y2="88" gradientUnits="userSpaceOnUse">
      <stop stop-color="#0f172a"/>
      <stop offset="0.55" stop-color="#0f766e"/>
      <stop offset="1" stop-color="#f59e0b"/>
    </linearGradient>
    <linearGradient id="tra-line" x1="30" y1="24" x2="86" y2="70" gradientUnits="userSpaceOnUse">
      <stop stop-color="#f8fafc"/>
      <stop offset="1" stop-color="#fde68a"/>
    </linearGradient>
  </defs>

  <rect x="6" y="8" width="112" height="80" rx="26" fill="url(#tra-bg)"/>
  <path d="M28 68c9-13 19-19.5 30-19.5c7.5 0 14.667 2.167 21.5 6.5S93.5 60 101 49" stroke="url(#tra-line)" stroke-linecap="round" stroke-width="4"/>
  <path d="M34 31h56" stroke="#E2E8F0" stroke-linecap="round" stroke-width="4"/>
  <path d="M34 41h40" stroke="#E2E8F0" stroke-linecap="round" stroke-opacity=".78" stroke-width="3"/>
  <path d="M34 51h24" stroke="#E2E8F0" stroke-linecap="round" stroke-opacity=".56" stroke-width="3"/>
  <path d="M79 24v42" stroke="#F8FAFC" stroke-linecap="round" stroke-width="3"/>
  <circle cx="79" cy="37" r="7" fill="#22C55E"/>
  <path d="M42 22h19l-6 10h8l-17 17l6-13h-10z" fill="#F8FAFC"/>
  <text x="138" y="39" fill="#0F172A" font-family="system-ui, -apple-system, Segoe UI, sans-serif" font-size="30" font-weight="800" letter-spacing="1.4">TRA JOURNAL</text>
  <text x="138" y="62" fill="#0F766E" font-family="system-ui, -apple-system, Segoe UI, sans-serif" font-size="14" font-weight="700" letter-spacing="3.2">RAUSHAN EDITION</text>
  <text x="138" y="81" fill="#64748B" font-family="system-ui, -apple-system, Segoe UI, sans-serif" font-size="12" font-weight="600" letter-spacing=".6">Trade memory. Journal discipline.</text>
</svg>
